<svg width="29" height="24" viewBox="0 0 29 24" fill="none" xmlns="http://www.w3.org/2000/svg">
<path d="M20.5556 23V20.5556C20.5556 19.2589 20.0405 18.0154 19.1236 17.0986C18.2068 16.1817 16.9633 15.6667 15.6667 15.6667H5.88889C4.59227 15.6667 3.34877 16.1817 2.43192 17.0986C1.51508 18.0154 1 19.2589 1 20.5556V23M27.8889 23V20.5556C27.8881 19.4723 27.5275 18.4201 26.8639 17.5639C26.2002 16.7078 25.271 16.0964 24.2222 15.8256M19.3333 1.15889C20.385 1.42815 21.317 2.03975 21.9827 2.89727C22.6483 3.75479 23.0096 4.80946 23.0096 5.895C23.0096 6.98054 22.6483 8.03521 21.9827 8.89273C21.317 9.75025 20.385 10.3619 19.3333 10.6311M15.6667 5.88889C15.6667 8.58895 13.4778 10.7778 10.7778 10.7778C8.07772 10.7778 5.88889 8.58895 5.88889 5.88889C5.88889 3.18883 8.07772 1 10.7778 1C13.4778 1 15.6667 3.18883 15.6667 5.88889Z" stroke="white" stroke-width="2" stroke-linecap="round" stroke-linejoin="round"/>
</svg>
