<svg width="27" height="23" viewBox="0 0 27 23" fill="none" xmlns="http://www.w3.org/2000/svg">
<path d="M2.5004 13.5657L11.9925 22.4274C12.3865 22.7951 12.9065 23 13.4476 23C13.9886 23 14.5087 22.7951 14.9026 22.4274L24.3947 13.5657C25.9916 12.0791 26.8951 9.99369 26.8951 7.81372V7.50905C26.8951 3.83723 24.2424 0.706475 20.6231 0.102385C18.2277 -0.296839 15.7904 0.485851 14.0779 2.19831L13.4476 2.82867L12.8172 2.19831C11.1047 0.485851 8.66737 -0.296839 6.27202 0.102385C2.65274 0.706475 0 3.83723 0 7.50905V7.81372C0 9.99369 0.903507 12.0791 2.5004 13.5657Z" fill="white"/>
</svg>
