<svg width="28" height="27" viewBox="0 0 28 27" fill="none" xmlns="http://www.w3.org/2000/svg">
<path d="M9.855 27L9.315 22.68C9.0225 22.5675 8.74687 22.4325 8.48812 22.275C8.22937 22.1175 7.97625 21.9487 7.72875 21.7688L3.7125 23.4563L0 17.0438L3.47625 14.4113C3.45375 14.2538 3.4425 14.1019 3.4425 13.9556V13.0444C3.4425 12.8981 3.45375 12.7463 3.47625 12.5887L0 9.95625L3.7125 3.54375L7.72875 5.23125C7.97625 5.05125 8.235 4.8825 8.505 4.725C8.775 4.5675 9.045 4.4325 9.315 4.32L9.855 0H17.28L17.82 4.32C18.1125 4.4325 18.3881 4.5675 18.6469 4.725C18.9056 4.8825 19.1588 5.05125 19.4062 5.23125L23.4225 3.54375L27.135 9.95625L23.6588 12.5887C23.6812 12.7463 23.6925 12.8981 23.6925 13.0444V13.9556C23.6925 14.1019 23.67 14.2538 23.625 14.4113L27.1013 17.0438L23.3888 23.4563L19.4062 21.7688C19.1588 21.9487 18.9 22.1175 18.63 22.275C18.36 22.4325 18.09 22.5675 17.82 22.68L17.28 27H9.855ZM13.635 18.225C14.94 18.225 16.0537 17.7638 16.9762 16.8413C17.8988 15.9188 18.36 14.805 18.36 13.5C18.36 12.195 17.8988 11.0813 16.9762 10.1588C16.0537 9.23625 14.94 8.775 13.635 8.775C12.3075 8.775 11.1881 9.23625 10.2769 10.1588C9.36563 11.0813 8.91 12.195 8.91 13.5C8.91 14.805 9.36563 15.9188 10.2769 16.8413C11.1881 17.7638 12.3075 18.225 13.635 18.225Z" fill="white"/>
</svg>
