<svg width="24" height="24" viewBox="0 0 24 24" fill="none" xmlns="http://www.w3.org/2000/svg">
<path fill-rule="evenodd" clip-rule="evenodd" d="M24.0002 12.2728C24.0002 11.4219 23.9223 10.6037 23.7776 9.81824H12.2451V14.4601H18.8351C18.5512 15.9601 17.6885 17.231 16.3917 18.0819V21.0928H20.349C22.6644 19.0037 24.0002 15.9273 24.0002 12.2728Z" fill="white"/>
<path fill-rule="evenodd" clip-rule="evenodd" d="M12.2452 23.9999C15.5513 23.9999 18.3231 22.9254 20.3491 21.0926L16.3918 18.0817C15.2953 18.8017 13.8927 19.2272 12.2452 19.2272C9.05598 19.2272 6.35654 17.1163 5.39364 14.2799H1.30273V17.389C3.31758 21.3108 7.45858 23.9999 12.2452 23.9999Z" fill="white"/>
<path fill-rule="evenodd" clip-rule="evenodd" d="M5.39332 14.2801C5.14842 13.5601 5.00928 12.791 5.00928 12.0001C5.00928 11.2091 5.14842 10.4401 5.39332 9.72005V6.61096H1.30241C0.473098 8.23096 0 10.0637 0 12.0001C0 13.9364 0.473098 15.7691 1.30241 17.3891L5.39332 14.2801Z" fill="white"/>
<path fill-rule="evenodd" clip-rule="evenodd" d="M12.2447 4.77273C14.0425 4.77273 15.6566 5.37818 16.9256 6.56727L20.4377 3.12545C18.3171 1.18909 15.5453 0 12.2447 0C7.45809 0 3.31709 2.68909 1.30225 6.61091L5.39316 9.72C6.35605 6.88364 9.05549 4.77273 12.2447 4.77273Z" fill="white"/>
</svg>
